<svg width="314" height="572" viewBox="0 0 314 572" fill="none" xmlns="http://www.w3.org/2000/svg">
<g clip-path="url(#clip0_277_398)">
<rect width="314" height="572" fill="white"/>
<path fill-rule="evenodd" clip-rule="evenodd" d="M28.8711 118.58H83.2073C87.8242 93.3663 92.0239 68.815 95.5752 46.0185L99.9487 17.9434L215.729 30.2386L209.935 61.8814C206.602 80.0877 202.987 99.1087 199.168 118.58H205.009L217.801 116.753L220.545 117.21V46.8251H481.995L480.193 78.3605C478.339 110.807 475.721 147.24 472.689 182.471H544.997L544.12 213.157L542.231 213.103C544.12 213.158 544.12 213.158 544.12 213.159V213.162L544.12 213.173L544.119 213.215L544.097 213.945C544.083 214.442 544.061 215.155 544.033 216.032C543.979 217.783 543.901 220.194 543.806 222.83C543.633 227.693 543.385 233.913 543.11 237.994C539.926 319.967 536.828 377.879 532.336 417.989C530.087 438.075 527.387 454.683 523.843 468.082C520.442 480.936 515.631 493.391 507.589 503.253C499.48 513.566 490.432 521.692 479.446 527.49C468.642 533.192 457.704 535.709 447.447 537.186C428.409 540.13 401.264 539.935 375.46 538.446L349.003 536.92L347.4 510.467C346.692 498.797 341.154 479.998 334.541 469.207L330.805 463.112C319.883 487.654 306.492 510.664 290.028 531.553L265.242 563L242.199 530.255C237.195 523.144 227.503 513.5 218.209 506.176L215.968 509.206L208.84 499.562C208.723 499.49 208.606 499.42 208.49 499.35L179.237 481.798C159.601 504.057 136.834 523.049 110.609 539.046L84.0059 555.274L68.9519 527.989C62.3518 516.026 48.3945 497.386 39.0454 488.427L9.00195 459.635L45.9138 440.424C62.3298 431.88 77.2893 420.077 90.6816 404.991L26.6045 370.991L32.8669 347.98C41.4343 316.5 51.0251 276.148 60.3975 232.8H28.8711V118.58ZM97.1785 202.967C95.1143 213.001 93.0217 222.968 90.9143 232.8C84.1536 264.346 77.2412 294.518 70.6309 321.161C69.6584 325.081 68.6926 328.923 67.7349 332.683C65.6655 340.805 63.6335 348.538 61.6533 355.815L109.818 381.371C110.089 380.333 110.361 379.288 110.633 378.238C111.677 374.22 112.73 370.115 113.793 365.932C114.762 366.633 115.731 367.339 116.702 368.049C116.746 368.081 116.791 368.114 116.835 368.146C124.432 373.705 132.065 379.513 139.58 385.463C139.938 385.746 140.296 386.03 140.653 386.314C139.891 387.623 139.122 388.921 138.344 390.207C133.859 397.628 129.117 404.657 124.116 411.285C122.036 414.042 119.91 416.73 117.74 419.348C107.907 431.206 97.1501 441.622 85.4507 450.529C77.3203 456.718 68.7344 462.179 59.6875 466.887C65.7996 472.745 72.9678 481.242 79.5503 490.053C82.6907 494.257 85.6978 498.532 88.3933 502.626C90.9514 506.511 93.2288 510.234 95.0735 513.577C103.694 508.319 111.926 502.686 119.777 496.655C137.553 483.002 153.385 467.311 167.387 449.307C173.478 441.475 179.222 433.206 184.631 424.477C188.619 428.309 192.428 432.104 196.019 435.835C199.547 439.501 202.864 443.105 205.935 446.622C206.128 446.844 206.32 447.065 206.511 447.286C210.017 451.33 213.19 455.256 215.976 459.024L250.87 411.842C246.302 405.982 240.736 399.818 234.412 393.483C234.379 393.45 234.347 393.418 234.314 393.385C227.333 386.398 219.43 379.203 210.927 371.973C214.761 362.428 218.332 352.468 221.644 342.075C231.884 309.949 239.662 273.691 245.191 232.8C246.115 225.968 246.976 219.005 247.775 211.911C249.657 195.205 251.196 177.769 252.406 159.571C252.554 157.338 252.698 155.093 252.836 152.837L217.45 146.939L207.129 148.413H162.788C164.373 140.609 165.934 132.84 167.466 125.128C167.901 122.941 168.333 120.758 168.762 118.58C170.941 107.541 173.056 96.6342 175.094 85.9259C176.997 75.9289 178.833 66.105 180.59 56.5082L125.053 50.6105C121.717 72.0292 117.814 94.9799 113.532 118.58C111.744 128.433 109.891 138.399 107.984 148.413H58.7046V202.967H97.1785ZM153.723 328.515C157.208 330.919 160.699 333.365 164.183 335.845C167.702 326.366 170.948 316.487 173.926 306.216C180.483 283.597 185.735 259.084 189.716 232.8C191.185 223.095 192.481 213.149 193.606 202.967H151.428C149.298 212.954 147.145 222.914 144.981 232.8C141.464 248.861 137.916 264.729 134.376 280.205C134.103 281.398 133.83 282.59 133.557 283.778C131.442 292.994 129.331 302.065 127.233 310.947C131.024 313.362 134.875 315.857 138.764 318.423C143.705 321.683 148.707 325.055 153.723 328.515ZM250.379 129.738H293.892C293.818 139.706 293.728 149.657 293.596 159.571C292.513 241.195 288.638 320.308 268.358 386.162C266.654 391.695 264.834 397.134 262.89 402.474C261.143 407.274 259.295 411.994 257.342 416.629C252.532 428.037 247.08 438.928 240.898 449.232C236.98 455.762 232.769 462.056 228.243 468.096C226.807 470.013 225.339 471.903 223.839 473.768C227.688 476.077 231.804 478.955 235.952 482.185C239.371 484.846 242.811 487.745 246.141 490.76C246.588 491.165 247.033 491.572 247.476 491.98C255.065 498.985 261.975 506.517 266.597 513.086C273.024 504.931 278.959 496.376 284.44 487.453C295.074 470.142 304 451.448 311.5 431.614C312.949 427.781 314.344 423.906 315.689 419.99C341.707 344.223 348.549 253.182 350.968 159.571C351.224 149.65 351.431 139.701 351.606 129.738H393.609C392.973 139.609 392.265 149.596 391.495 159.571C390.903 167.231 390.274 174.884 389.614 182.471C388.849 191.244 388.042 199.931 387.199 208.441C385.668 223.879 384.018 238.738 382.289 252.483C381.895 255.614 381.497 258.687 381.096 261.696C380.136 268.89 379.156 275.718 378.161 282.094L431.732 286.026C431.732 286.025 431.732 286.024 431.732 286.024C432.463 280.663 433.194 274.983 433.922 269.033C434.069 267.827 434.216 266.611 434.364 265.384H457.24C456.911 273.711 456.573 281.701 456.226 289.366C456.137 291.338 456.047 293.288 455.956 295.217C455.589 303.037 455.212 310.505 454.823 317.634C450.244 401.673 444.124 438.633 435.172 448.703C429.766 454.601 424.851 455.584 416.496 455.584C411.509 455.584 403.652 455.584 394.202 455.362C384.096 455.124 372.168 454.634 359.977 453.618C365.219 462.17 369.686 473.356 372.771 484.392C375.181 493.016 376.747 501.548 377.178 508.663C402.735 510.137 427.309 510.137 443.036 507.68C460.237 505.222 472.032 500.307 484.319 484.58C500.833 464.666 506.787 402.511 513.092 242.138C513.166 240.235 513.241 238.318 513.316 236.387C513.808 229.506 514.299 212.305 514.299 212.305H440.023C440.958 202.563 441.867 192.576 442.744 182.471C444.935 157.226 446.919 131.242 448.561 106.492C449.238 96.292 449.857 86.3015 450.408 76.6586H250.379V129.738ZM413.234 425.748C413.511 424.776 413.816 423.628 414.14 422.283C416.079 414.241 418.034 402.194 419.882 384.846C421.802 366.819 423.516 343.988 425.065 315.45L370.359 311.435C369.502 317.901 368.578 324.322 367.581 330.692C362.636 362.3 355.829 393.197 346.291 422.54L362.454 423.887C382.558 425.563 402.069 425.731 413.234 425.748Z" fill="black"/>
</g>
<defs>
<clipPath id="clip0_277_398">
<rect width="314" height="572" fill="white"/>
</clipPath>
</defs>
</svg>
