<svg width="314" height="572" viewBox="0 0 314 572" fill="none" xmlns="http://www.w3.org/2000/svg">
<g clip-path="url(#clip0_277_398)">
<rect width="314" height="572" fill="white"/>
<path fill-rule="evenodd" clip-rule="evenodd" d="M65.8711 118.58H120.207C124.824 93.3663 129.024 68.815 132.575 46.0185L136.949 17.9434L252.729 30.2386L246.935 61.8814C243.602 80.0877 239.987 99.1087 236.168 118.58H242.009L254.801 116.753L257.545 117.21V46.8251H518.995L517.193 78.3605C515.339 110.807 512.721 147.24 509.689 182.471H581.997L581.12 213.157L579.231 213.103C581.12 213.158 581.12 213.158 581.12 213.159V213.162L581.12 213.173L581.119 213.215L581.097 213.945C581.083 214.442 581.061 215.155 581.033 216.032C580.979 217.783 580.901 220.194 580.806 222.83C580.633 227.693 580.385 233.913 580.11 237.994C576.926 319.967 573.828 377.879 569.336 417.989C567.087 438.075 564.387 454.683 560.843 468.082C557.442 480.936 552.631 493.391 544.589 503.253C536.48 513.566 527.432 521.692 516.446 527.49C505.642 533.192 494.704 535.709 484.447 537.186C465.409 540.13 438.264 539.935 412.46 538.446L386.003 536.92L384.4 510.467C383.692 498.797 378.154 479.998 371.541 469.207L367.805 463.112C356.883 487.654 343.492 510.664 327.028 531.553L302.242 563L279.199 530.255C274.195 523.144 264.503 513.5 255.209 506.176L252.968 509.206L245.84 499.562C245.723 499.49 245.606 499.42 245.49 499.35L216.237 481.798C196.601 504.057 173.834 523.049 147.609 539.046L121.006 555.274L105.952 527.989C99.3518 516.026 85.3945 497.386 76.0454 488.427L46.002 459.635L82.9138 440.424C99.3298 431.88 114.289 420.077 127.682 404.991L63.6045 370.991L69.8669 347.98C78.4343 316.5 88.0251 276.148 97.3975 232.8H65.8711V118.58ZM134.178 202.967C132.114 213.001 130.022 222.968 127.914 232.8C121.154 264.346 114.241 294.518 107.631 321.161C106.658 325.081 105.693 328.923 104.735 332.683C102.666 340.805 100.634 348.538 98.6533 355.815L146.818 381.371C147.089 380.333 147.361 379.288 147.633 378.238C148.677 374.22 149.73 370.115 150.793 365.932C151.762 366.633 152.731 367.339 153.702 368.049C153.746 368.081 153.791 368.114 153.835 368.146C161.432 373.705 169.065 379.513 176.58 385.463C176.938 385.746 177.296 386.03 177.653 386.314C176.891 387.623 176.122 388.921 175.344 390.207C170.859 397.628 166.117 404.657 161.116 411.285C159.036 414.042 156.91 416.73 154.74 419.348C144.907 431.206 134.15 441.622 122.451 450.529C114.32 456.718 105.734 462.179 96.6875 466.887C102.8 472.745 109.968 481.242 116.55 490.053C119.691 494.257 122.698 498.532 125.393 502.626C127.951 506.511 130.229 510.234 132.073 513.577C140.694 508.319 148.926 502.686 156.777 496.655C174.553 483.002 190.385 467.311 204.387 449.307C210.478 441.475 216.222 433.206 221.631 424.477C225.619 428.309 229.428 432.104 233.019 435.835C236.547 439.501 239.864 443.105 242.935 446.622C243.128 446.844 243.32 447.065 243.511 447.286C247.017 451.33 250.19 455.256 252.976 459.024L287.87 411.842C283.302 405.982 277.736 399.818 271.412 393.483C271.379 393.45 271.347 393.418 271.314 393.385C264.333 386.398 256.43 379.203 247.927 371.973C251.761 362.428 255.332 352.468 258.644 342.075C268.884 309.949 276.662 273.691 282.191 232.8C283.115 225.968 283.976 219.005 284.775 211.911C286.657 195.205 288.196 177.769 289.406 159.571C289.554 157.338 289.698 155.093 289.836 152.837L254.45 146.939L244.129 148.413H199.788C201.373 140.609 202.934 132.84 204.466 125.128C204.901 122.941 205.333 120.758 205.762 118.58C207.941 107.541 210.056 96.6342 212.094 85.9259C213.997 75.9289 215.833 66.105 217.59 56.5082L162.053 50.6105C158.717 72.0292 154.814 94.9799 150.532 118.58C148.744 128.433 146.891 138.399 144.984 148.413H95.7046V202.967H134.178ZM190.723 328.515C194.208 330.919 197.699 333.365 201.183 335.845C204.702 326.366 207.948 316.487 210.926 306.216C217.483 283.597 222.735 259.084 226.716 232.8C228.185 223.095 229.481 213.149 230.606 202.967H188.428C186.298 212.954 184.145 222.914 181.981 232.8C178.464 248.861 174.916 264.729 171.376 280.205C171.103 281.398 170.83 282.59 170.557 283.778C168.442 292.994 166.331 302.065 164.233 310.947C168.024 313.362 171.875 315.857 175.764 318.423C180.705 321.683 185.707 325.055 190.723 328.515ZM287.379 129.738H330.892C330.818 139.706 330.728 149.657 330.596 159.571C329.513 241.195 325.638 320.308 305.358 386.162C303.654 391.695 301.834 397.134 299.89 402.474C298.143 407.274 296.295 411.994 294.342 416.629C289.532 428.037 284.08 438.928 277.898 449.232C273.98 455.762 269.769 462.056 265.243 468.096C263.807 470.013 262.339 471.903 260.839 473.768C264.688 476.077 268.804 478.955 272.952 482.185C276.371 484.846 279.811 487.745 283.141 490.76C283.588 491.165 284.033 491.572 284.476 491.98C292.065 498.985 298.975 506.517 303.597 513.086C310.024 504.931 315.959 496.376 321.44 487.453C332.074 470.142 341 451.448 348.5 431.614C349.949 427.781 351.344 423.906 352.689 419.99C378.707 344.223 385.549 253.182 387.968 159.571C388.224 149.65 388.431 139.701 388.606 129.738H430.609C429.973 139.609 429.265 149.596 428.495 159.571C427.903 167.231 427.274 174.884 426.614 182.471C425.849 191.244 425.042 199.931 424.199 208.441C422.668 223.879 421.018 238.738 419.289 252.483C418.895 255.614 418.497 258.687 418.096 261.696C417.136 268.89 416.156 275.718 415.161 282.094L468.732 286.026C468.732 286.025 468.732 286.024 468.732 286.024C469.463 280.663 470.194 274.983 470.922 269.033C471.069 267.827 471.216 266.611 471.364 265.384H494.24C493.911 273.711 493.573 281.701 493.226 289.366C493.137 291.338 493.047 293.288 492.956 295.217C492.589 303.037 492.212 310.505 491.823 317.634C487.244 401.673 481.124 438.633 472.172 448.703C466.766 454.601 461.851 455.584 453.496 455.584C448.509 455.584 440.652 455.584 431.202 455.362C421.096 455.124 409.168 454.634 396.977 453.618C402.219 462.17 406.686 473.356 409.771 484.392C412.181 493.016 413.747 501.548 414.178 508.663C439.735 510.137 464.309 510.137 480.036 507.68C497.237 505.222 509.032 500.307 521.319 484.58C537.833 464.666 543.787 402.511 550.092 242.138C550.166 240.235 550.241 238.318 550.316 236.387C550.808 229.506 551.299 212.305 551.299 212.305H477.023C477.958 202.563 478.867 192.576 479.744 182.471C481.935 157.226 483.919 131.242 485.561 106.492C486.238 96.292 486.857 86.3015 487.408 76.6586H287.379V129.738ZM450.234 425.748C450.511 424.776 450.816 423.628 451.14 422.283C453.079 414.241 455.034 402.194 456.882 384.846C458.802 366.819 460.516 343.988 462.065 315.45L407.359 311.435C406.502 317.901 405.578 324.322 404.581 330.692C399.636 362.3 392.829 393.197 383.291 422.54L399.454 423.887C419.558 425.563 439.069 425.731 450.234 425.748Z" fill="black"/>
</g>
<defs>
<clipPath id="clip0_277_398">
<rect width="314" height="572" fill="white"/>
</clipPath>
</defs>
</svg>
