<svg width="451" height="556" viewBox="0 0 451 556" fill="none" xmlns="http://www.w3.org/2000/svg">
<g clip-path="url(#clip0_309_798)">
<path fill-rule="evenodd" clip-rule="evenodd" d="M-183.757 125.718L295.842 18.0995L308.185 80.0734L348.734 70.9743L380.581 230.881L366.694 233.997L417.654 489.875C420.592 504.629 422.501 520.726 419.309 536.527C415.747 554.153 406.553 568.244 393.186 579.322L392.674 579.747L392.146 580.152C368.614 598.215 336.285 605.923 303.052 612.819L273.267 619L264.08 590.073C262.867 586.254 260.583 581.232 257.726 575.827C254.562 589.891 250.095 603.749 243.965 617.016L229.222 648.918L198.029 634.558C194.344 632.862 185.925 630.016 175.342 627.213C164.98 624.468 155.39 622.515 149.99 621.891L106.369 616.851L114.57 658.034L-8.96971 685.755L-17.198 644.439L-122.183 667.997L-143.688 560.015L-123.691 555.528L-142.771 459.722L-160.547 463.711L-181.83 356.845L-177.386 355.848L-209.187 196.168L-171.415 187.692L-183.757 125.718ZM-134.394 196.709L38.3592 157.945L41.8062 175.253L-168.719 222.493L-150.372 314.616L-91.4915 301.404L-102.277 247.247L49.3674 213.219L69.3822 313.717L134.373 299.133L114.358 198.635L267.669 164.233L278.455 218.391L340.113 204.555L321.766 112.432L106.797 160.669L103.35 143.361L277.769 104.223L268.873 59.5572L-143.289 152.043L-134.394 196.709ZM274.79 229.129L144.809 258.296L150.925 289.003L280.906 259.837L274.79 229.129ZM140.375 314.702L161.502 420.783C162.203 424.307 162.902 427.906 163.585 431.571C165.616 442.467 167.51 453.949 168.931 465.778C169.111 467.275 169.283 468.779 169.447 470.287C170.132 476.581 170.673 482.963 171.02 489.397C171.339 495.299 171.496 501.245 171.452 507.208C171.444 508.377 171.427 509.548 171.403 510.718C171.305 515.435 171.077 520.158 170.7 524.875C170.602 526.107 170.493 527.339 170.374 528.57C169.898 533.494 169.254 538.407 168.421 543.294C167.817 546.839 167.113 550.37 166.301 553.881C165.142 558.897 163.762 563.873 162.139 568.792C162.102 568.902 162.066 569.012 162.029 569.122C159.97 575.315 157.524 581.415 154.642 587.389C157.894 587.765 161.791 588.409 166.038 589.248C173.123 590.647 181.179 592.587 188.827 594.718C191.135 595.361 193.405 596.021 195.6 596.689C202.171 598.689 208.071 600.76 212.285 602.644C212.48 602.732 212.672 602.819 212.86 602.905C217.711 592.409 221.361 581.244 224.018 569.654C226.71 557.911 228.383 545.732 229.252 533.373C229.258 533.295 229.263 533.218 229.269 533.14C229.959 523.208 230.132 513.161 229.899 503.131C229.857 501.296 229.801 499.462 229.732 497.63L316.828 478.086L323.277 510.469C323.383 511.002 323.463 511.509 323.515 511.992C324.005 516.563 321.975 518.927 315.946 520.28C314.167 520.852 311.106 521.661 307.186 522.611C297.89 524.863 283.759 527.913 270.397 530.501C276.628 538.99 283.993 550.695 289.658 561.889C292.682 567.864 295.222 573.694 296.847 578.81C331.398 571.64 355.616 565.039 371.724 552.676C386.981 540.031 389.22 524.612 384.122 498.392C384.061 498.077 383.999 497.76 383.935 497.441L338.679 270.204L140.375 314.702ZM206.929 351.679L288.029 333.481L293.588 361.397L212.489 379.595L206.929 351.679ZM221.046 423.17C222.78 432.737 224.404 442.741 225.78 453.021L308.155 434.537L302.262 404.946L221.046 423.17ZM161.971 568.829L153.965 528.63L57.8679 550.193L54.5321 533.444L142.853 513.625L126.062 429.319L37.7418 449.137L34.7396 434.062L98.6192 419.728L89.1678 372.271L131.384 362.798L123.6 323.715L81.3842 333.188L77.6036 314.205L24.2781 326.171L28.0586 345.154L-45.8195 361.732L-49.6001 342.749L-100.148 354.091L-96.3678 373.074L-141.361 383.17L-133.578 422.253L-88.5842 412.157L-79.1328 459.614L-21.3634 446.651L-18.3611 461.726L-103.349 480.797L-86.5586 565.103L-1.57089 546.033L1.76491 562.782L-103.22 586.34L-95.2139 626.539L9.77085 602.982L17.9992 644.298L74.1022 631.709L65.8738 590.393L161.971 568.829ZM48.3052 502.178L86.0775 493.702L81.741 471.927L43.9687 480.403L48.3052 502.178ZM-38.036 400.814L-34.7002 417.564L39.178 400.986L35.8422 384.237L-38.036 400.814ZM-45.0146 523.118L-7.79774 514.767L-12.1343 492.992L-49.3511 501.343L-45.0146 523.118ZM-77.3754 340.232L50.9393 311.439L44.8237 280.731L-83.491 309.524L-77.3754 340.232ZM41.0436 264.665L34.928 233.957L-80.6108 259.883L-74.4952 290.591L41.0436 264.665ZM258.234 215.929L252.119 185.221L135.469 211.396L141.585 242.104L258.234 215.929Z" fill="white"/>
</g>
<defs>
<clipPath id="clip0_309_798">
<rect width="451" height="556" fill="white"/>
</clipPath>
</defs>
</svg>
