<svg width="314" height="572" viewBox="0 0 314 572" fill="none" xmlns="http://www.w3.org/2000/svg">
<g clip-path="url(#clip0_277_397)">
<rect width="314" height="572" fill="white"/>
<path fill-rule="evenodd" clip-rule="evenodd" d="M-98.5199 284.229C-113.467 292.956 -129.198 301.174 -145.329 308.684H-35.3754V260.053H24.5536V308.684H144.706C128.168 301.378 111.592 293.154 95.5974 284.229C79.2389 275.102 63.488 265.243 49.0079 254.884C40.3557 248.695 32.1571 242.327 24.5536 235.831C24.463 235.753 24.3725 235.676 24.2821 235.598C20.5345 232.389 16.9324 229.148 13.4929 225.882C7.28331 219.986 1.60365 214.008 -3.44595 207.983C-8.36053 214.051 -13.9346 220.125 -20.083 226.163C-23.298 229.321 -26.67 232.468 -30.1869 235.598C-31.8831 237.108 -33.6131 238.614 -35.3754 240.116C-42.9637 246.582 -51.1514 252.964 -59.8296 259.204C-71.8784 267.869 -84.8724 276.261 -98.5199 284.229ZM177.708 322.067C169.644 319.093 161.467 315.855 153.254 312.38V363.209H24.5536V507.628H-35.3754V363.209H-157.69V314.264C-165.782 317.804 -173.949 321.158 -182.144 324.3C-190.518 327.511 -198.921 330.501 -207.303 333.245C-210.632 324.922 -216.312 314.091 -222.572 303.852C-227.396 295.961 -232.564 288.421 -237.267 282.649C-228.91 280.316 -220.624 277.72 -212.44 274.884C-164.089 258.132 -119.282 233.049 -84.1011 204.929C-77.6779 199.795 -71.5756 194.56 -65.8311 189.256C-62.6817 186.348 -59.6398 183.419 -56.7116 180.475C-51.1809 174.914 -46.0556 169.298 -41.3768 163.663C-40.8342 163.009 -40.2976 162.356 -39.7671 161.702C-38.6011 160.264 -37.4645 158.826 -36.3578 157.387H24.5536C25.7986 158.838 27.0571 160.276 28.3288 161.702C29.2281 162.71 30.134 163.711 31.0464 164.707C36.033 170.149 41.2138 175.404 46.5708 180.475C49.4959 183.243 52.4735 185.957 55.5006 188.616C61.9778 194.305 68.6817 199.742 75.5835 204.929C115.462 234.901 161.946 256.531 209.441 270.148C218.034 272.612 226.661 274.813 235.288 276.754C230.009 283.048 224.815 290.516 219.947 298.257C213.036 309.247 206.784 320.787 201.885 330.297C193.996 327.845 185.91 325.093 177.708 322.067ZM119.309 204.929C156.569 227.389 198.376 243.383 240.656 252.896L279.823 261.709L254.024 292.469C243.156 305.427 231.925 325.381 223.624 341.496L214.225 359.741L194.627 353.65C189.065 351.921 183.417 350.053 177.708 348.053V387.663H164.761C188.778 407.682 212.753 429.45 227.577 447.307L244.928 468.207L151.259 530.653L137.439 511.741C121.382 489.768 82.4264 453.805 49.0079 427.223V532.083H-59.8296V425.488C-85.5323 463.663 -122.028 498.044 -155.297 520.523L-171.654 531.575L-185.908 517.916C-196.422 507.84 -219.865 489.958 -232.622 482.729L-271.059 460.949L-232.194 439.941C-208.097 426.915 -185.033 408.031 -168.104 387.663H-182.144V350.408C-188.005 352.548 -193.861 354.576 -199.697 356.486L-221.491 363.619L-230.008 342.327C-234.966 329.931 -246.954 309.475 -256.225 298.096L-279.822 269.136L-243.841 259.095C-200.577 247.021 -159.693 227.537 -125.626 204.929H-148.741V161.702H-245.02V58.7586H-148.741V21.917H-41.3768V58.7586H31.0464V21.917H138.901V58.7586H241.076V161.702H138.901V204.929H119.309ZM114.447 137.247H216.621V83.2129H114.447V46.3713H55.5006V83.2129H-65.8311V46.3713H-124.286V83.2129H-220.566V137.247H-124.286V180.475H-65.8311V137.247H55.5006V180.475H114.447V137.247ZM-137.559 387.663C-152.416 409.78 -173.836 430.685 -197.356 447.104C-204.925 452.388 -212.711 457.208 -220.566 461.453C-214.271 465.021 -206.093 470.56 -197.87 476.617C-186.845 484.738 -175.741 493.788 -168.988 500.26C-138.965 479.975 -106.262 449.302 -82.7789 415.714C-77.8291 408.634 -73.2888 401.425 -69.2697 394.156L-130.672 376.472C-132.77 380.226 -135.073 383.962 -137.559 387.663ZM80.863 421.695C74.0468 415.966 67.3214 410.496 60.9041 405.454L109.044 374.507C114.434 378.629 120.119 383.046 125.953 387.663C148.471 405.485 173.219 426.306 191.889 444.785C198.358 451.188 204.098 457.309 208.762 462.927L157.184 497.313C142.001 476.536 110.569 446.661 80.863 421.695Z" fill="black"/>
</g>
<defs>
<clipPath id="clip0_277_397">
<rect width="314" height="572" fill="white"/>
</clipPath>
</defs>
</svg>
