<svg width="1014" height="1222" viewBox="0 0 1014 1222" fill="none" xmlns="http://www.w3.org/2000/svg">
<g clip-path="url(#clip0_201_263)">
<rect width="1013" height="1222" transform="translate(0.90625)" fill="white"/>
<path fill-rule="evenodd" clip-rule="evenodd" d="M813.861 626.412C783.51 645.016 751.568 662.535 718.813 678.543H942.077V574.873H1063.76V678.543H1307.73C1274.16 662.968 1240.5 645.436 1208.02 626.412C1174.8 606.955 1142.82 585.937 1113.42 563.855C1095.85 550.66 1079.2 537.086 1063.76 523.237C1063.58 523.072 1063.4 522.907 1063.21 522.742C1055.6 515.9 1048.29 508.992 1041.31 502.029C1028.7 489.46 1017.16 476.716 1006.91 463.872C996.931 476.806 985.613 489.757 973.128 502.628C966.6 509.359 959.753 516.068 952.612 522.742C949.168 525.961 945.655 529.171 942.077 532.372C926.669 546.156 910.043 559.761 892.422 573.064C867.957 591.535 841.572 609.426 813.861 626.412ZM1374.75 707.074C1358.37 700.733 1341.77 693.83 1325.09 686.423V794.779H1063.76V1102.65H942.077V794.779H693.716V690.439C677.284 697.987 660.7 705.136 644.061 711.835C627.057 718.68 609.995 725.054 592.975 730.902C586.215 713.159 574.682 690.071 561.971 668.242C552.176 651.421 541.681 635.348 532.131 623.043C549.101 618.071 565.925 612.535 582.543 606.491C680.722 570.779 771.702 517.307 843.138 457.361C856.181 446.417 868.572 435.257 880.236 423.949C886.631 417.75 892.808 411.507 898.753 405.23C909.984 393.376 920.391 381.404 929.891 369.391C930.993 367.998 932.082 366.604 933.16 365.21C935.527 362.146 937.835 359.08 940.082 356.013H1063.76C1066.29 359.105 1068.85 362.171 1071.43 365.21C1073.26 367.359 1075.1 369.495 1076.95 371.617C1087.07 383.217 1097.59 394.421 1108.47 405.23C1114.41 411.133 1120.46 416.918 1126.6 422.585C1139.75 434.712 1153.37 446.303 1167.38 457.361C1248.36 521.256 1342.74 567.366 1439.18 596.394C1456.63 601.646 1474.15 606.339 1491.66 610.477C1480.95 623.893 1470.4 639.814 1460.51 656.316C1446.48 679.744 1433.79 704.344 1423.84 724.619C1407.82 719.392 1391.4 713.523 1374.75 707.074ZM1256.17 457.361C1331.82 505.242 1416.71 539.338 1502.56 559.617L1582.09 578.404L1529.71 643.977C1507.64 671.601 1484.84 714.139 1467.98 748.492L1448.9 787.386L1409.1 774.401C1397.81 770.715 1386.34 766.733 1374.75 762.471V846.91H1348.46C1397.22 889.587 1445.91 935.99 1476.01 974.057L1511.24 1018.61L1321.04 1151.73L1292.98 1111.42C1260.38 1064.57 1181.28 987.91 1113.42 931.242V1154.78H892.422V927.544C840.232 1008.92 766.128 1082.22 698.574 1130.14L665.36 1153.7L636.418 1124.58C615.069 1103.1 567.466 1064.98 541.563 1049.57L463.518 1003.14L542.432 958.354C591.363 930.586 638.193 890.33 672.57 846.91H644.061V767.491C632.16 772.052 620.268 776.376 608.419 780.447L564.165 795.652L546.871 750.263C536.803 723.838 512.463 680.229 493.637 655.973L445.723 594.236L518.784 572.83C606.633 547.092 689.647 505.557 758.822 457.361H711.886V365.21H516.389V145.759H711.886V67.2207H929.891V145.759H1076.95V67.2207H1295.95V145.759H1503.42V365.21H1295.95V457.361H1256.17ZM1246.29 313.079H1453.76V197.89H1246.29V119.352H1126.6V197.89H880.236V119.352H761.541V197.89H566.044V313.079H761.541V405.23H880.236V313.079H1126.6V405.23H1246.29V313.079ZM734.59 846.91C704.423 894.058 660.93 938.622 613.172 973.625C597.804 984.889 581.994 995.163 566.044 1004.21C578.827 1011.82 595.432 1023.63 612.127 1036.54C634.514 1053.85 657.062 1073.14 670.775 1086.94C731.736 1043.7 798.14 978.31 845.823 906.707C855.874 891.615 865.093 876.247 873.254 860.751L748.575 823.053C744.315 831.056 739.639 839.019 734.59 846.91ZM1178.1 919.458C1164.26 907.246 1150.61 895.585 1137.57 884.836L1235.32 818.864C1246.27 827.652 1257.81 837.067 1269.66 846.91C1315.38 884.903 1365.63 929.288 1403.54 968.681C1416.68 982.33 1428.33 995.379 1437.8 1007.36L1333.07 1080.66C1302.24 1036.37 1238.42 972.679 1178.1 919.458Z" fill="black"/>
</g>
<defs>
<clipPath id="clip0_201_263">
<rect width="1013" height="1222" fill="white" transform="translate(0.90625)"/>
</clipPath>
</defs>
</svg>
