<svg width="13em" viewBox="0 0 1022 1230" fill="none" xmlns="http://www.w3.org/2000/svg">
<g clip-path="url(#clip0_201_261)" filter="url(#filter0_d_201_261)">
<rect width="1013" height="1222" transform="translate(4.49609)" fill="white"/>
<path fill-rule="evenodd" clip-rule="evenodd" d="M-459.555 254.679H-346.909C-337.338 202.413 -328.631 151.52 -321.269 104.264L-312.202 46.0664L-72.1758 71.5537L-84.1868 137.147C-91.0975 174.888 -98.5913 214.317 -106.509 254.679H-94.4001L-67.8802 250.891L-62.1913 251.839V105.936H479.825L476.09 171.307C472.246 238.566 466.82 314.09 460.534 387.122H610.437L608.62 450.731L604.703 450.62C608.619 450.733 608.62 450.735 608.62 450.735V450.742L608.619 450.765L608.616 450.851L608.572 452.365C608.541 453.394 608.497 454.874 608.439 456.691C608.326 460.32 608.164 465.319 607.969 470.784C607.609 480.862 607.096 493.757 606.524 502.218C599.923 672.14 593.501 792.189 584.189 875.334C579.526 916.97 573.929 951.399 566.581 979.174C559.532 1005.82 549.558 1031.64 532.886 1052.08C516.075 1073.46 497.318 1090.3 474.541 1102.32C452.144 1114.14 429.468 1119.36 408.204 1122.42C368.735 1128.52 312.462 1128.12 258.966 1125.03L204.117 1121.87L200.794 1067.04C199.327 1042.84 187.846 1003.87 174.135 981.507L166.39 968.87C143.748 1019.75 115.988 1067.44 81.8548 1110.75L30.4711 1175.93L-17.2998 1108.05C-27.674 1093.31 -47.7675 1073.32 -67.0345 1058.14L-71.6797 1064.42L-86.4573 1044.43C-86.7002 1044.28 -86.9422 1044.13 -87.1831 1043.99L-147.827 1007.61C-188.537 1053.75 -235.735 1093.12 -290.102 1126.28L-345.254 1159.92L-376.463 1103.36C-390.145 1078.56 -419.08 1039.92 -438.462 1021.35L-500.746 961.664L-424.223 921.84C-390.191 904.129 -359.178 879.663 -331.414 848.389L-464.254 777.91L-451.271 730.211C-433.51 664.954 -413.627 581.308 -394.197 491.451H-459.555V254.679ZM-317.945 429.608C-322.225 450.408 -326.563 471.068 -330.932 491.451C-344.948 556.842 -359.278 619.386 -372.982 674.617C-374.998 682.741 -377 690.707 -378.986 698.5C-383.276 715.336 -387.488 731.368 -391.593 746.451L-291.743 799.428C-291.181 797.276 -290.617 795.111 -290.052 792.934C-287.889 784.603 -285.705 776.095 -283.502 767.423C-281.493 768.877 -279.483 770.34 -277.471 771.811C-277.379 771.878 -277.287 771.946 -277.195 772.013C-261.446 783.536 -245.621 795.577 -230.042 807.91C-229.3 808.497 -228.558 809.085 -227.817 809.674C-229.397 812.388 -230.992 815.078 -232.604 817.744C-241.903 833.127 -251.733 847.699 -262.1 861.437C-266.413 867.153 -270.82 872.725 -275.32 878.151C-295.704 902.732 -318.004 924.324 -342.259 942.787C-359.114 955.617 -376.914 966.936 -395.669 976.697C-382.998 988.84 -368.137 1006.45 -354.491 1024.72C-347.98 1033.43 -341.746 1042.29 -336.158 1050.78C-330.855 1058.84 -326.134 1066.55 -322.309 1073.48C-304.438 1062.58 -287.373 1050.9 -271.095 1038.4C-234.244 1010.1 -201.423 977.574 -172.395 940.254C-159.768 924.02 -147.858 906.879 -136.646 888.784C-128.379 896.726 -120.482 904.593 -113.037 912.328C-105.724 919.927 -98.8459 927.398 -92.4808 934.689C-92.0799 935.148 -91.6816 935.607 -91.2848 936.065C-84.0177 944.447 -77.4385 952.585 -71.6646 960.397L0.676056 862.593C-8.7942 850.444 -20.3325 837.668 -33.4444 824.535C-33.5117 824.467 -33.579 824.4 -33.6464 824.332C-48.1197 809.849 -64.5023 794.933 -82.1319 779.945C-74.1821 760.16 -66.7804 739.513 -59.9131 717.97C-38.6849 651.374 -22.5595 576.214 -11.0976 491.451C-9.18239 477.287 -7.39777 462.854 -5.74069 448.149C-1.83891 413.519 1.35225 377.374 3.85913 339.651C4.16686 335.022 4.46449 330.368 4.75146 325.691L-68.608 313.466L-90.0043 316.522H-181.929C-178.642 300.344 -175.406 284.239 -172.231 268.254C-171.33 263.719 -170.434 259.194 -169.543 254.679C-165.027 231.797 -160.642 209.187 -156.417 186.99C-152.472 166.267 -148.667 145.902 -145.024 126.009L-260.158 113.783C-267.075 158.183 -275.165 205.758 -284.042 254.679C-287.749 275.103 -291.592 295.762 -295.544 316.522H-397.706V429.608H-317.945ZM-200.722 689.861C-193.498 694.844 -186.259 699.914 -179.036 705.054C-171.742 685.407 -165.011 664.927 -158.839 643.637C-145.245 596.748 -134.356 545.935 -126.105 491.451C-123.058 471.333 -120.371 450.714 -118.04 429.608H-205.48C-209.896 450.31 -214.358 470.956 -218.846 491.451C-226.135 524.744 -233.492 557.636 -240.83 589.717C-241.396 592.191 -241.962 594.66 -242.528 597.125C-246.913 616.228 -251.29 635.031 -255.639 653.444C-247.779 658.449 -239.795 663.622 -231.734 668.94C-221.49 675.698 -211.121 682.689 -200.722 689.861ZM-0.342773 277.808H89.8658C89.713 298.473 89.5252 319.1 89.2524 339.651C87.0062 508.852 78.9739 672.849 36.9304 809.358C33.3976 820.828 29.6248 832.104 25.5955 843.172C21.9726 853.124 18.1422 862.907 14.0922 872.514C4.12134 896.164 -7.18165 918.739 -19.998 940.099C-28.1199 953.634 -36.8497 966.682 -46.2334 979.203C-49.2099 983.176 -52.2528 987.095 -55.3625 990.96C-47.3838 995.747 -38.8504 1001.71 -30.2502 1008.41C-23.1633 1013.92 -16.0314 1019.93 -9.12823 1026.18C-8.2015 1027.02 -7.27884 1027.87 -6.36072 1028.71C9.37193 1043.23 23.6975 1058.85 33.2802 1072.46C46.6046 1055.56 58.9082 1037.82 70.2709 1019.33C92.3171 983.443 110.821 944.692 126.368 903.578C129.373 895.633 132.266 887.6 135.054 879.482C188.991 722.422 203.176 533.701 208.191 339.651C208.723 319.086 209.151 298.462 209.513 277.808H296.591C295.273 298.272 293.805 318.974 292.208 339.651C290.981 355.53 289.678 371.393 288.308 387.122C286.724 405.308 285.051 423.314 283.302 440.954C280.129 472.958 276.707 503.759 273.124 532.252C272.307 538.741 271.482 545.112 270.65 551.349C268.66 566.262 266.628 580.417 264.566 593.633L375.624 601.783L375.625 601.779C377.14 590.666 378.655 578.892 380.164 566.558C380.47 564.059 380.775 561.538 381.08 558.994H428.507C427.824 576.255 427.124 592.819 426.404 608.707C426.219 612.795 426.033 616.838 425.845 620.837C425.084 637.046 424.301 652.527 423.496 667.305C414.003 841.513 401.314 918.127 382.757 939.002C371.549 951.227 361.36 953.265 344.039 953.265C333.7 953.265 317.412 953.265 297.821 952.805C276.87 952.314 252.141 951.296 226.867 949.19C237.735 966.919 246.996 990.105 253.391 1012.98C258.388 1030.86 261.635 1048.55 262.529 1063.29C315.51 1066.35 366.455 1066.35 399.059 1061.26C434.719 1056.16 459.173 1045.97 484.645 1013.37C518.88 972.093 531.223 843.25 544.293 510.808C544.448 506.862 544.603 502.888 544.759 498.885C545.778 484.622 546.796 448.965 546.796 448.965H392.813C394.75 428.77 396.637 408.069 398.455 387.122C402.997 334.789 407.11 280.927 410.514 229.622C411.917 208.478 413.199 187.768 414.342 167.779H-0.342773V277.808ZM337.275 891.418C337.851 889.403 338.483 887.023 339.155 884.236C343.174 867.565 347.227 842.592 351.058 806.631C355.04 769.262 358.593 721.935 361.803 662.778L248.391 654.455C246.614 667.859 244.699 681.169 242.633 694.374C232.38 759.895 218.268 823.941 198.495 884.769L232.004 887.561C273.681 891.034 314.129 891.383 337.275 891.418Z" fill="black"/>
</g>
<defs>
<filter id="filter0_d_201_261" x="0.496094" y="0" width="1021" height="1230" filterUnits="userSpaceOnUse" color-interpolation-filters="sRGB">
<feFlood flood-opacity="0" result="BackgroundImageFix"/>
<feColorMatrix in="SourceAlpha" type="matrix" values="0 0 0 0 0 0 0 0 0 0 0 0 0 0 0 0 0 0 127 0" result="hardAlpha"/>
<feOffset dy="4"/>
<feGaussianBlur stdDeviation="2"/>
<feComposite in2="hardAlpha" operator="out"/>
<feColorMatrix type="matrix" values="0 0 0 0 0 0 0 0 0 0 0 0 0 0 0 0 0 0 0.25 0"/>
<feBlend mode="normal" in2="BackgroundImageFix" result="effect1_dropShadow_201_261"/>
<feBlend mode="normal" in="SourceGraphic" in2="effect1_dropShadow_201_261" result="shape"/>
</filter>
<clipPath id="clip0_201_261">
<rect width="1013" height="1222" fill="white" transform="translate(4.49609)"/>
</clipPath>
</defs>
</svg>
