<svg width="152" height="147" viewBox="0 0 152 147" fill="none" xmlns="http://www.w3.org/2000/svg">
<path d="M49.6891 12.9141H102.316C122.364 12.9141 138.653 28.7508 138.653 48.2422V99.4071C138.653 108.777 134.825 117.762 128.01 124.388C121.196 131.013 111.953 134.735 102.316 134.735H49.6891C29.6408 134.735 13.3516 118.898 13.3516 99.4071V48.2422C13.3516 38.8726 17.18 29.8867 23.9946 23.2614C30.8092 16.6361 40.0518 12.9141 49.6891 12.9141M48.436 25.0962C42.4543 25.0962 36.7175 27.4064 32.4877 31.5187C28.258 35.6309 25.8817 41.2084 25.8817 47.024V100.625C25.8817 112.746 35.9685 122.553 48.436 122.553H103.569C109.551 122.553 115.287 120.243 119.517 116.131C123.747 112.018 126.123 106.441 126.123 100.625V47.024C126.123 34.9028 116.036 25.0962 103.569 25.0962H48.436ZM108.894 34.2328C110.971 34.2328 112.963 35.0349 114.432 36.4628C115.9 37.8907 116.725 39.8273 116.725 41.8466C116.725 43.8659 115.9 45.8025 114.432 47.2304C112.963 48.6582 110.971 49.4604 108.894 49.4604C106.817 49.4604 104.825 48.6582 103.357 47.2304C101.888 45.8025 101.063 43.8659 101.063 41.8466C101.063 39.8273 101.888 37.8907 103.357 36.4628C104.825 35.0349 106.817 34.2328 108.894 34.2328ZM76.0024 43.3693C84.3104 43.3693 92.2782 46.578 98.1528 52.2895C104.027 58.001 107.328 65.7474 107.328 73.8246C107.328 81.9019 104.027 89.6483 98.1528 95.3597C92.2782 101.071 84.3104 104.28 76.0024 104.28C67.6944 104.28 59.7267 101.071 53.852 95.3597C47.9773 89.6483 44.677 81.9019 44.677 73.8246C44.677 65.7474 47.9773 58.001 53.852 52.2895C59.7267 46.578 67.6944 43.3693 76.0024 43.3693M76.0024 55.5515C71.0176 55.5515 66.237 57.4767 62.7122 60.9035C59.1874 64.3304 57.2072 68.9783 57.2072 73.8246C57.2072 78.671 59.1874 83.3188 62.7122 86.7457C66.237 90.1726 71.0176 92.0978 76.0024 92.0978C80.9872 92.0978 85.7679 90.1726 89.2927 86.7457C92.8175 83.3188 94.7977 78.671 94.7977 73.8246C94.7977 68.9783 92.8175 64.3304 89.2927 60.9035C85.7679 57.4767 80.9872 55.5515 76.0024 55.5515Z" fill="white"/>
</svg>
