<svg width="573" height="234" viewBox="0 0 573 234" fill="none" xmlns="http://www.w3.org/2000/svg">
<path d="M95.3997 32.8077V17.8077H80.3997V32.8077H95.3997ZM95.3997 60.2366H80.3997V75.2366H95.3997V60.2366ZM208.822 60.2366V75.2366H223.822V60.2366H208.822ZM208.822 32.8077H223.822V17.8077H208.822V32.8077ZM95.8939 94.5846V79.5846H80.8939V94.5846H95.8939ZM95.8939 121.025H80.8939V136.025H95.8939V121.025ZM198.691 121.025V136.025H213.691V121.025H198.691ZM198.691 94.5846H213.691V79.5846H198.691V94.5846ZM136.914 0.189474V-14.8105H121.914V0.189474H136.914ZM136.914 109.411H121.914V124.411H136.914V109.411ZM165.825 109.411V124.411H180.825V109.411H165.825ZM165.825 0.189474H180.825V-14.8105H165.825V0.189474ZM79.8319 32.8077V17.8077H64.8319V32.8077H79.8319ZM52.6501 217.15L40.4853 208.374L29.0408 224.238L47.3303 231.175L52.6501 217.15ZM77.6079 231.976L67.5442 243.099L80.0759 254.438L89.8467 240.649L77.6079 231.976ZM108.249 32.8077H123.249V17.8077H108.249V32.8077ZM201.903 32.8077V17.8077H186.903V32.8077H201.903ZM201.903 37.0085L216.535 40.3124L216.903 38.681V37.0085H201.903ZM187.077 82.9705L173.491 76.6114L166.047 92.5158L182.919 97.3829L187.077 82.9705ZM212.776 90.3838L208.618 104.796L220.522 108.23L226.143 97.189L212.776 90.3838ZM233.039 37.0085L247.411 41.3016L251.952 26.1007L236.52 22.4182L233.039 37.0085ZM211.293 31.8192L214.775 17.2289L211.499 16.4471L208.203 17.141L211.293 31.8192ZM206.598 32.8077V47.8077H208.16L209.688 47.4859L206.598 32.8077ZM129.748 111.635L143.818 106.435L139.016 93.4423L125.682 97.1964L129.748 111.635ZM104.296 118.801L100.23 104.363L84.5586 108.775L90.2377 124.033L104.296 118.801ZM214.506 232.224L209.647 246.415L221.589 250.503L227.658 239.436L214.506 232.224ZM233.78 207.019L243.745 218.23L264.254 200L237.837 192.578L233.78 207.019ZM14.5955 23.4176L2.71121 14.2653L-7.93542 28.0901L7.33075 36.541L14.5955 23.4176ZM58.0864 50.3523L48.9408 62.2417L61.1995 71.6715L70.2499 59.1301L58.0864 50.3523ZM75.384 26.3829L87.5475 35.1607L96.5559 22.6776L83.8434 13.9959L75.384 26.3829ZM31.1517 1.91922L37.7618 -11.5458L26.7513 -16.9509L19.2674 -7.23304L31.1517 1.91922ZM0.0161442 90.6309L-11.9677 81.6093L-22.6475 95.796L-6.8752 103.954L0.0161442 90.6309ZM44.4955 116.824L35.3499 128.714L47.8705 138.345L56.8417 125.343L44.4955 116.824ZM61.5459 92.1135L73.8921 100.632L82.5483 88.0873L69.8665 79.6328L61.5459 92.1135ZM16.5724 68.6383L22.6871 54.9412L11.7755 50.0699L4.58853 59.6168L16.5724 68.6383ZM4.9583 211.961L-7.84504 204.146L-15.3215 216.394L-3.41581 224.406L4.9583 211.961ZM31.3988 229.752L23.0247 242.197L36.8426 251.495L44.6491 236.783L31.3988 229.752ZM68.7121 150.431L82.539 156.246L87.0301 145.567L77.8332 138.523L68.7121 150.431ZM45.4839 132.639L54.6051 120.731L39.3424 109.04L31.7149 126.688L45.4839 132.639ZM188.065 94.5846V79.5846H173.065V94.5846H188.065ZM188.065 100.021L202.709 103.268L203.065 101.664V100.021H188.065ZM89.7162 208.254L84.93 194.038L60.2045 202.363L79.8386 219.543L89.7162 208.254ZM108.496 232.718L95.2742 239.801L101.515 251.451L113.859 246.727L108.496 232.718ZM217.718 101.751L232.294 105.291L235.293 92.9413L223.605 87.954L217.718 101.751ZM199.185 93.8433L205.071 80.0466L201.215 78.401L197.064 78.994L199.185 93.8433ZM193.996 94.5846V109.585H195.062L196.117 109.434L193.996 94.5846ZM80.3997 32.8077V60.2366H110.4V32.8077H80.3997ZM95.3997 75.2366H208.822V45.2366H95.3997V75.2366ZM223.822 60.2366V32.8077H193.822V60.2366H223.822ZM208.822 17.8077H95.3997V47.8077H208.822V17.8077ZM80.8939 94.5846V121.025H110.894V94.5846H80.8939ZM95.8939 136.025H198.691V106.025H95.8939V136.025ZM213.691 121.025V94.5846H183.691V121.025H213.691ZM198.691 79.5846H95.8939V109.585H198.691V79.5846ZM121.914 0.189474V109.411H151.914V0.189474H121.914ZM136.914 124.411H165.825V94.411H136.914V124.411ZM180.825 109.411V0.189474H150.825V109.411H180.825ZM165.825 -14.8105H136.914V15.1895H165.825V-14.8105ZM64.8319 32.8077V96.0672H94.8319V32.8077H64.8319ZM64.8319 96.0672C64.8319 132.644 62.2382 178.221 40.4853 208.374L64.8148 225.926C92.9776 186.888 94.8319 131.646 94.8319 96.0672H64.8319ZM47.3303 231.175C49.7694 232.1 53.8773 234.153 58.2279 236.729C62.6647 239.356 66.0803 241.775 67.5442 243.099L87.6716 220.853C83.9463 217.483 78.4661 213.848 73.5127 210.915C68.4733 207.931 62.6969 204.918 57.9699 203.125L47.3303 231.175ZM89.8467 240.649C104.859 219.463 113.061 193.13 117.608 167.817C122.183 142.345 123.249 116.776 123.249 96.3143H93.2493C93.2493 115.885 92.2155 139.49 88.0801 162.513C83.9162 185.695 76.7973 207.176 65.3692 223.304L89.8467 240.649ZM123.249 96.3143V32.8077H93.2493V96.3143H123.249ZM108.249 17.8077H79.8319V47.8077H108.249V17.8077ZM186.903 32.8077V37.0085H216.903V32.8077H186.903ZM187.271 33.7046C183.949 48.4192 178.31 66.3175 173.491 76.6114L200.662 89.3296C206.716 76.3955 212.938 56.2392 216.535 40.3124L187.271 33.7046ZM182.919 97.3829L208.618 104.796L216.933 75.9714L191.234 68.5582L182.919 97.3829ZM226.143 97.189C233.637 82.4695 241.599 60.7593 247.411 41.3016L218.666 32.7154C213.111 51.3123 205.753 71.1162 199.408 83.5785L226.143 97.189ZM236.52 22.4182L214.775 17.2289L207.811 46.4096L229.557 51.5988L236.52 22.4182ZM208.203 17.141L203.508 18.1294L209.688 47.4859L214.383 46.4975L208.203 17.141ZM206.598 17.8077H201.903V47.8077H206.598V17.8077ZM125.682 97.1964L100.23 104.363L108.361 133.24L133.813 126.074L125.682 97.1964ZM90.2377 124.033C111.996 182.494 149.738 225.905 209.647 246.415L219.364 218.032C169.558 200.981 137.615 165.319 118.353 113.569L90.2377 124.033ZM227.658 239.436C231.332 232.736 238.751 222.669 243.745 218.23L223.815 195.807C215.465 203.229 206.081 216.39 201.353 225.011L227.658 239.436ZM237.837 192.578C190.742 179.346 159.019 147.568 143.818 106.435L115.678 116.835C134.083 166.638 173.033 205.532 229.723 221.459L237.837 192.578ZM7.33075 36.541C21.1989 44.218 40.3014 55.596 48.9408 62.2417L67.2321 38.463C56.5971 30.2822 35.6682 17.9379 21.8602 10.2942L7.33075 36.541ZM70.2499 59.1301L87.5475 35.1607L63.2205 17.6051L45.9229 41.5745L70.2499 59.1301ZM83.8434 13.9959C72.7477 6.4183 51.3878 -4.85666 37.7618 -11.5458L24.5416 15.3842C38.0974 22.0389 57.7574 32.5094 66.9245 38.7699L83.8434 13.9959ZM19.2674 -7.23304L2.71121 14.2653L26.4798 32.5698L43.036 11.0715L19.2674 -7.23304ZM-6.8752 103.954C7.60167 111.442 26.9352 122.241 35.3499 128.714L53.6412 104.935C42.7814 96.5813 21.0951 84.646 6.90749 77.3076L-6.8752 103.954ZM56.8417 125.343L73.8921 100.632L49.1997 83.5946L32.1493 108.305L56.8417 125.343ZM69.8665 79.6328C58.3945 71.9848 36.6866 61.191 22.6871 54.9412L10.4576 82.3354C24.1342 88.441 43.9404 98.4042 53.2254 104.594L69.8665 79.6328ZM4.58853 59.6168L-11.9677 81.6093L12 99.6524L28.5562 77.6598L4.58853 59.6168ZM-3.41581 224.406L23.0247 242.197L39.7729 217.308L13.3324 199.516L-3.41581 224.406ZM44.6491 236.783C57.7477 212.097 71.2805 183.016 82.539 156.246L54.8851 144.616C43.9039 170.727 30.7491 198.975 18.1486 222.722L44.6491 236.783ZM77.8332 138.523L54.6051 120.731L36.3628 144.547L59.5909 162.339L77.8332 138.523ZM31.7149 126.688C19.3679 155.256 3.37556 185.763 -7.84504 204.146L17.7616 219.776C29.7692 200.104 46.395 168.34 59.253 138.59L31.7149 126.688ZM173.065 94.5846V100.021H203.065V94.5846H173.065ZM173.421 96.7737C162.072 147.952 129.656 178.98 84.93 194.038L94.5025 222.47C148.125 204.416 188.853 165.759 202.709 103.268L173.421 96.7737ZM79.8386 219.543C81.6425 221.121 84.6803 224.539 87.9886 228.901C91.2247 233.168 93.9315 237.295 95.2742 239.801L121.719 225.634C119.355 221.222 115.637 215.711 111.892 210.773C108.219 205.931 103.721 200.576 99.5938 196.965L79.8386 219.543ZM113.859 246.727C170.264 225.136 214.367 179.11 232.294 105.291L203.142 98.2107C187.463 162.772 150.02 200.762 103.134 218.709L113.859 246.727ZM223.605 87.954L205.071 80.0466L193.298 107.64L211.831 115.547L223.605 87.954ZM197.064 78.994L191.874 79.7353L196.117 109.434L201.306 108.693L197.064 78.994ZM193.996 79.5846H188.065V109.585H193.996V79.5846ZM370.678 8.59113V-6.40887H355.678V8.59113H370.678ZM370.678 28.3597H355.678V43.3597H370.678V28.3597ZM554.031 28.3597V43.3597H569.031V28.3597H554.031ZM554.031 8.59113H569.031V-6.40887H554.031V8.59113ZM351.897 106.693V91.6929H336.897V106.693H351.897ZM351.897 123.99H336.897V138.99H351.897V123.99ZM469.768 123.99V138.99H484.768V123.99H469.768ZM469.768 106.693H484.768V91.6929H469.768V106.693ZM493.49 104.469V89.4689H478.49V104.469H493.49ZM493.49 126.461H478.49V141.461H493.49V126.461ZM553.29 126.461V141.461H568.29V126.461H553.29ZM553.29 104.469H568.29V89.4689H553.29V104.469ZM493.49 138.817V123.817H478.49V138.817H493.49ZM493.49 158.091H478.49V173.091H493.49V158.091ZM553.29 158.091V173.091H568.29V158.091H553.29ZM553.29 138.817H568.29V123.817H553.29V138.817ZM487.312 171.188V156.188H472.312V171.188H487.312ZM487.312 190.462H472.312V205.462H487.312V190.462ZM553.043 190.462V205.462H568.043V190.462H553.043ZM553.043 171.188H568.043V156.188H553.043V171.188ZM350.909 196.393V181.393H335.909V196.393H350.909ZM350.909 214.185H335.909V229.185H350.909V214.185ZM465.32 214.185V229.185H480.32V214.185H465.32ZM465.32 196.393H480.32V181.393H465.32V196.393ZM388.222 60.2366V45.2366H373.222V60.2366H388.222ZM388.222 73.8275H373.222V88.8275H388.222V73.8275ZM439.621 73.8275V88.8275H454.621V73.8275H439.621ZM439.621 60.2366H454.621V45.2366H439.621V60.2366ZM382.786 80.9937V65.9937H367.786V80.9937H382.786ZM382.786 94.5846H367.786V109.585H382.786V94.5846ZM439.868 94.5846V109.585H454.868V94.5846H439.868ZM439.868 80.9937H454.868V65.9937H439.868V80.9937ZM484.347 80.9937V65.9937H469.347V80.9937H484.347ZM484.347 94.5846H469.347V109.585H484.347V94.5846ZM542.17 94.5846V109.585H557.17V94.5846H542.17ZM542.17 80.9937H557.17V65.9937H542.17V80.9937ZM484.347 60.2366V45.2366H469.347V60.2366H484.347ZM484.347 73.8275H469.347V88.8275H484.347V73.8275ZM536.24 73.8275V88.8275H551.24V73.8275H536.24ZM536.24 60.2366H551.24V45.2366H536.24V60.2366ZM447.528 17.2399V2.2399H432.528V17.2399H447.528ZM447.528 97.3028H432.528V112.303H447.528V97.3028ZM476.44 97.3028V112.303H491.44V97.3028H476.44ZM476.44 17.2399H491.44V2.2399H476.44V17.2399ZM397.612 134.863V119.863H382.612V134.863H397.612ZM397.612 232.471H382.612V247.471H397.612V232.471ZM422.57 232.471V247.471H437.57V232.471H422.57ZM422.57 134.863H437.57V119.863H422.57V134.863ZM353.874 36.0201V21.0201H338.874V36.0201H353.874ZM353.874 76.7928H338.874V91.7928H353.874V76.7928ZM380.068 76.7928V91.7928H395.068V76.7928H380.068ZM380.068 52.8234V37.8234H365.068V52.8234H380.068ZM544.641 52.8234H559.641V37.8234H544.641V52.8234ZM544.641 76.7928H529.641V91.7928H544.641V76.7928ZM572.07 76.7928V91.7928H587.07V76.7928H572.07ZM572.07 36.0201H587.07V21.0201H572.07V36.0201ZM381.056 165.504V150.504H366.056V165.504H381.056ZM439.374 165.504H454.374V150.504H439.374V165.504ZM439.374 175.142V190.142H454.374V175.142H439.374ZM381.056 175.142H366.056V190.142H381.056V175.142ZM359.805 151.666V136.666H344.805V151.666H359.805ZM359.805 188.98H344.805V203.98H359.805V188.98ZM461.86 188.98V203.98H476.86V188.98H461.86ZM461.86 151.666H476.86V136.666H461.86V151.666ZM371.913 98.2912V83.2912H356.913V98.2912H371.913ZM371.913 144.995H356.913V159.995H371.913V144.995ZM450.988 144.995V159.995H465.988V144.995H450.988ZM450.988 98.2912H465.988V83.2912H450.988V98.2912ZM427.265 98.2912V83.2912H412.265V98.2912H427.265ZM427.265 131.404V146.404H442.265V131.404H427.265ZM394.4 131.404H379.4V146.404H394.4V131.404ZM394.4 98.2912H409.4V83.2912H394.4V98.2912ZM477.675 104.469V89.4689H462.675V104.469H477.675ZM460.625 221.351L448.73 212.212L436.049 228.717L455.718 235.526L460.625 221.351ZM484.1 233.459L475.1 245.459L487.165 254.508L496.149 242.394L484.1 233.459ZM502.88 104.469H517.88V89.4689H502.88V104.469ZM538.958 104.469V89.4689H523.958V104.469H538.958ZM535.004 208.254V193.254H534.324L533.646 193.316L535.004 208.254ZM514.741 208.254L515.182 193.261L490.972 192.549L501.122 214.54L514.741 208.254ZM521.907 231.235L506.999 232.892L508.458 246.02L521.666 246.233L521.907 231.235ZM556.008 227.281L562.375 240.863L562.634 240.742L562.888 240.611L556.008 227.281ZM565.893 104.469H580.893V89.4689H565.893V104.469ZM355.678 8.59113V28.3597H385.678V8.59113H355.678ZM370.678 43.3597H554.031V13.3597H370.678V43.3597ZM569.031 28.3597V8.59113H539.031V28.3597H569.031ZM554.031 -6.40887H370.678V23.5911H554.031V-6.40887ZM336.897 106.693V123.99H366.897V106.693H336.897ZM351.897 138.99H469.768V108.99H351.897V138.99ZM484.768 123.99V106.693H454.768V123.99H484.768ZM469.768 91.6929H351.897V121.693H469.768V91.6929ZM478.49 104.469V126.461H508.49V104.469H478.49ZM493.49 141.461H553.29V111.461H493.49V141.461ZM568.29 126.461V104.469H538.29V126.461H568.29ZM553.29 89.4689H493.49V119.469H553.29V89.4689ZM478.49 138.817V158.091H508.49V138.817H478.49ZM493.49 173.091H553.29V143.091H493.49V173.091ZM568.29 158.091V138.817H538.29V158.091H568.29ZM553.29 123.817H493.49V153.817H553.29V123.817ZM472.312 171.188V190.462H502.312V171.188H472.312ZM487.312 205.462H553.043V175.462H487.312V205.462ZM568.043 190.462V171.188H538.043V190.462H568.043ZM553.043 156.188H487.312V186.188H553.043V156.188ZM335.909 196.393V214.185H365.909V196.393H335.909ZM350.909 229.185H465.32V199.185H350.909V229.185ZM480.32 214.185V196.393H450.32V214.185H480.32ZM465.32 181.393H350.909V211.393H465.32V181.393ZM373.222 60.2366V73.8275H403.222V60.2366H373.222ZM388.222 88.8275H439.621V58.8275H388.222V88.8275ZM454.621 73.8275V60.2366H424.621V73.8275H454.621ZM439.621 45.2366H388.222V75.2366H439.621V45.2366ZM367.786 80.9937V94.5846H397.786V80.9937H367.786ZM382.786 109.585H439.868V79.5846H382.786V109.585ZM454.868 94.5846V80.9937H424.868V94.5846H454.868ZM439.868 65.9937H382.786V95.9937H439.868V65.9937ZM469.347 80.9937V94.5846H499.347V80.9937H469.347ZM484.347 109.585H542.17V79.5846H484.347V109.585ZM557.17 94.5846V80.9937H527.17V94.5846H557.17ZM542.17 65.9937H484.347V95.9937H542.17V65.9937ZM469.347 60.2366V73.8275H499.347V60.2366H469.347ZM484.347 88.8275H536.24V58.8275H484.347V88.8275ZM551.24 73.8275V60.2366H521.24V73.8275H551.24ZM536.24 45.2366H484.347V75.2366H536.24V45.2366ZM432.528 17.2399V97.3028H462.528V17.2399H432.528ZM447.528 112.303H476.44V82.3028H447.528V112.303ZM491.44 97.3028V17.2399H461.44V97.3028H491.44ZM476.44 2.2399H447.528V32.2399H476.44V2.2399ZM382.612 134.863V232.471H412.612V134.863H382.612ZM397.612 247.471H422.57V217.471H397.612V247.471ZM437.57 232.471V134.863H407.57V232.471H437.57ZM422.57 119.863H397.612V149.863H422.57V119.863ZM338.874 36.0201V76.7928H368.874V36.0201H338.874ZM353.874 91.7928H380.068V61.7928H353.874V91.7928ZM395.068 76.7928V52.8234H365.068V76.7928H395.068ZM380.068 67.8234H544.641V37.8234H380.068V67.8234ZM529.641 52.8234V76.7928H559.641V52.8234H529.641ZM544.641 91.7928H572.07V61.7928H544.641V91.7928ZM587.07 76.7928V36.0201H557.07V76.7928H587.07ZM572.07 21.0201H353.874V51.0201H572.07V21.0201ZM381.056 180.504H439.374V150.504H381.056V180.504ZM424.374 165.504V175.142H454.374V165.504H424.374ZM439.374 160.142H381.056V190.142H439.374V160.142ZM396.056 175.142V165.504H366.056V175.142H396.056ZM344.805 151.666V188.98H374.805V151.666H344.805ZM359.805 203.98H461.86V173.98H359.805V203.98ZM476.86 188.98V151.666H446.86V188.98H476.86ZM461.86 136.666H359.805V166.666H461.86V136.666ZM356.913 98.2912V144.995H386.913V98.2912H356.913ZM371.913 159.995H450.988V129.995H371.913V159.995ZM465.988 144.995V98.2912H435.988V144.995H465.988ZM450.988 83.2912H427.265V113.291H450.988V83.2912ZM412.265 98.2912V131.404H442.265V98.2912H412.265ZM427.265 116.404H394.4V146.404H427.265V116.404ZM409.4 131.404V98.2912H379.4V131.404H409.4ZM394.4 83.2912H371.913V113.291H394.4V83.2912ZM462.675 104.469V151.419H492.675V104.469H462.675ZM462.675 151.419C462.675 173.427 460.856 196.429 448.73 212.212L472.52 230.489C491.529 205.747 492.675 172.903 492.675 151.419H462.675ZM455.718 235.526C457.965 236.303 461.883 238.042 466.062 240.19C470.331 242.384 473.675 244.39 475.1 245.459L493.1 221.459C489.583 218.821 484.402 215.885 479.774 213.507C475.058 211.084 469.71 208.622 465.531 207.176L455.718 235.526ZM496.149 242.394C506.203 228.836 511.489 212.314 514.359 196.695C517.252 180.953 517.88 165.038 517.88 151.914H487.88C487.88 164.241 487.273 178.103 484.853 191.273C482.41 204.565 478.306 216.089 472.051 224.524L496.149 242.394ZM517.88 151.914V104.469H487.88V151.914H517.88ZM502.88 89.4689H477.675V119.469H502.88V89.4689ZM523.958 104.469V204.795H553.958V104.469H523.958ZM523.958 204.795C523.958 204.563 523.912 200.033 528.059 196.302C529.96 194.59 531.91 193.85 533.131 193.535C533.732 193.38 534.206 193.315 534.496 193.285C534.788 193.255 534.969 193.254 535.004 193.254V223.254C537.385 223.254 543.21 223.026 548.127 218.6C553.509 213.757 553.958 207.497 553.958 204.795H523.958ZM533.646 193.316C533.656 193.315 533.61 193.319 533.494 193.326C533.383 193.333 533.232 193.341 533.038 193.35C532.648 193.367 532.147 193.383 531.535 193.397C530.31 193.425 528.768 193.439 527.004 193.439C523.478 193.439 519.239 193.38 515.182 193.261L514.3 223.248C522.533 223.49 532.591 223.535 536.362 223.192L533.646 193.316ZM501.122 214.54C503.805 220.354 506.516 228.546 506.999 232.892L536.816 229.579C535.816 220.581 531.608 209.004 528.361 201.968L501.122 214.54ZM521.666 246.233C536.402 246.471 550.822 246.279 562.375 240.863L549.642 213.699C545.379 215.697 538.054 216.494 522.149 216.237L521.666 246.233ZM562.888 240.611C569.52 237.188 574.63 232.092 577.641 224.964C580.34 218.573 580.893 211.572 580.893 205.042H550.893C550.893 210.373 550.333 212.515 550.005 213.29C549.907 213.523 549.884 213.502 549.947 213.436C549.987 213.394 549.819 213.596 549.129 213.952L562.888 240.611ZM580.893 205.042V104.469H550.893V205.042H580.893ZM565.893 89.4689H538.958V119.469H565.893V89.4689Z" fill="black"/>
</svg>
